Coordinates
version=1
nRows=24
nColumns=24
inDegrees=yes

Units are S.I. units (second, meters, Newtons, ...)
Angles are in degrees.

endheader
time	pelvis_tilt	pelvis_list	pelvis_rotation	pelvis_tx	pelvis_ty	pelvis_tz	hip_flexion_r	hip_adduction_r	hip_rotation_r	knee_angle_r	ankle_angle_r	subtalar_angle_r	mtp_angle_r	hip_flexion_l	hip_adduction_l	hip_rotation_l	knee_angle_l	ankle_angle_l	subtalar_angle_l	mtp_angle_l	lumbar_extension	lumbar_bending	lumbar_rotation
      3.70500000	    -11.26810686	     -0.27557996	      4.74809432	     -1.64178741	     -0.02749940	     -0.76564896	     34.42554686	     -0.97959404	    -11.82039118	    -14.51123253	     -6.29039327	     -7.80498489	      8.51600543	     -4.90860925	      1.71252539	    -15.39593693	    -15.30173998	      8.73755349	      9.77157378	      9.23733720	      9.31739598	      1.82060702	     -9.50977557
      3.71000000	    -11.31481806	     -0.51764611	      4.62350549	     -1.63489349	     -0.02782813	     -0.76497513	     34.45029180	     -0.60603258	    -11.39148664	    -15.08481898	     -6.86724719	     -8.65083671	      7.24236792	     -4.78753030	      1.20681946	    -15.54355423	    -16.23982101	      8.23021045	      9.98137685	      9.10831862	      9.52099535	      2.13620013	     -9.49133839
      3.71500000	    -11.36451390	     -0.78266944	      4.63621806	     -1.62794851	     -0.02797917	     -0.76453393	     34.44963566	     -0.33618268	    -11.34387189	    -15.60792313	     -7.47516031	     -9.36768524	      6.79921025	     -4.61724880	      0.68156993	    -15.43437993	    -17.21264782	      7.54868195	     10.02982181	      9.00391025	      9.74840013	      2.45065893	     -9.64916655
      3.72000000	    -11.41674982	     -1.02267359	      4.43697906	     -1.62103989	     -0.02813428	     -0.76366019	     34.47300060	      0.09273913	    -10.74935126	    -16.20199806	     -7.85094253	    -10.21691244	      4.57357045	     -4.40797685	      0.13472657	    -15.79247414	    -18.28793973	      6.90475520	     10.36904726	      8.87306338	      9.95210904	      2.77082290	     -9.61133933
      3.72500000	    -11.45986591	     -1.24517672	      4.41428979	     -1.61418586	     -0.02814188	     -0.76310960	     34.46174098	      0.34704694	    -10.65297646	    -16.72239572	     -8.35533239	    -11.08151115	      4.17550227	     -4.14044881	     -0.36225569	    -15.68476480	    -19.41302459	      6.05416932	     10.32059874	      8.75933534	     10.14261867	      3.04609043	     -9.70055196
      3.73000000	    -11.52421785	     -1.46643987	      4.21788492	     -1.60726484	     -0.02815691	     -0.76222427	     34.46380243	      0.75654085	    -10.08225469	    -17.29341395	     -8.53051767	    -11.89825976	      2.08268384	     -3.81357627	     -0.91105670	    -16.01585361	    -20.63594088	      5.19071665	     10.52494861	      8.76598491	     10.35323239	      3.34492614	     -9.64318966
      3.73500000	    -11.55151589	     -1.61797066	      4.18285848	     -1.60049701	     -0.02802861	     -0.76156132	     34.40523873	      0.97963557	     -9.84535016	    -17.81045948	     -8.76743022	    -12.78153022	      1.41638997	     -3.44092387	     -1.36653964	    -15.96247562	    -21.93292191	      4.15263709	     10.43935722	      8.71618260	     10.49765413	      3.53738203	     -9.74094946
      3.74000000	    -11.60270646	     -1.79308501	      3.99259689	     -1.59359698	     -0.02788466	     -0.76066721	     34.35808675	      1.34070503	     -9.44668715	    -18.34848285	     -8.74147370	    -13.45692324	     -0.34473761	     -3.02644113	     -1.87325736	    -16.15484880	    -23.26998965	      2.96617170	     10.40213681	      8.98079814	     10.68125744	      3.78927545	     -9.62272416
      3.74500000	    -11.55415459	     -1.96986273	      3.97385584	     -1.58667651	     -0.02751612	     -0.76015107	     34.12747517	      1.57539904	     -9.38144283	    -18.75321134	     -8.73393269	    -14.04658839	     -0.63606759	     -2.65128128	     -2.34953946	    -15.99938265	    -24.65307503	      1.64325980	     10.08894927	      8.87075052	     10.77529390	      4.03076739	     -9.72730958
      3.75000000	    -11.63820961	     -2.07527124	      3.78668059	     -1.57998180	     -0.02734236	     -0.75916033	     34.07649725	      1.90057145	     -8.87916107	    -19.24144143	     -8.50405406	    -14.63133706	     -2.36679654	     -2.06824462	     -2.80118890	    -16.12204891	    -26.13207299	      0.10966954	      9.87555084	      9.66529558	     10.95000212	      4.19353313	     -9.63446790
      3.75500000	    -11.58737389	     -2.21728661	      3.71525439	     -1.57327239	     -0.02692481	     -0.75846250	     33.80593145	      2.18351694	     -8.63070307	    -19.60244691	     -8.25687988	    -15.09532248	     -3.27180064	     -1.58365367	     -3.26119024	    -15.97967476	    -27.61133659	     -1.61595383	      9.41764269	     10.35543124	     10.99239010	      4.39594844	     -9.67036570
      3.76000000	    -11.50018705	     -2.35790145	      3.62196062	     -1.56665419	     -0.02645481	     -0.75782456	     33.46857348	      2.47329234	     -8.41030450	    -19.88435020	     -8.11045287	    -15.56712615	     -3.39869827	     -1.07878778	     -3.70198744	    -15.77421126	    -29.19466326	     -3.25785508	      8.92979665	     10.24540048	     10.98220131	      4.61467426	     -9.66071913
      3.76500000	    -11.49732370	     -2.45372620	      3.52573804	     -1.56018052	     -0.02609906	     -0.75710684	     33.21483692	      2.74377324	     -8.08483190	    -20.15734474	     -7.88723131	    -16.11282112	     -3.70998649	     -0.42395073	     -4.09232436	    -15.55145603	    -30.82189722	     -5.05604887	      8.36523429	     10.44499636	     11.03790352	      4.77081994	     -9.65813557
      3.77000000	    -11.57411044	     -2.61955944	      3.34470771	     -1.55372231	     -0.02586348	     -0.75629381	     33.04620875	      3.12571156	     -7.75307862	    -20.44144331	     -7.52245076	    -16.41290311	     -4.59581087	      0.33637314	     -4.56904563	    -15.42071308	    -32.43485600	     -7.10614864	      7.73336588	     11.74830274	     11.17575045	      5.01570943	     -9.52609263
      3.77500000	    -11.51276281	     -2.80071643	      3.23691153	     -1.54736046	     -0.02541540	     -0.75566070	     32.66599042	      3.49113294	     -7.46570181	    -20.60336964	     -7.23758482	    -16.79599864	     -4.98227703	      0.99561922	     -5.02624801	    -15.09552489	    -34.09613728	     -8.97708544	      7.10751391	     12.10098009	     11.15758044	      5.27566153	     -9.47878288
      3.78000000	    -11.42909743	     -2.96879842	      3.12207387	     -1.54120334	     -0.02497329	     -0.75507883	     32.27639912	      3.83026644	     -7.28414769	    -20.76440396	     -6.99014654	    -17.15109217	     -5.07411593	      1.68630197	     -5.45843171	    -14.78821289	    -35.83593202	    -10.65462332	      6.47859979	     11.94469393	     11.07577016	      5.53006808	     -9.40317696
      3.78500000	    -11.47064693	     -3.11945387	      3.02807437	     -1.53511115	     -0.02467100	     -0.75451422	     31.99780002	      4.14188410	     -7.00665154	    -20.90129166	     -6.64132012	    -17.45864100	     -5.32827046	      2.55050313	     -5.83573806	    -14.37149348	    -37.58444059	    -12.29821625	      5.80291625	     12.11662120	     11.12948323	      5.74566188	     -9.35413256
      3.79000000	    -11.52954639	     -3.30439800	      2.87867418	     -1.52910240	     -0.02440955	     -0.75390797	     31.75335406	      4.49373147	     -6.84719914	    -21.06340145	     -6.20696512	    -17.53999009	     -5.86797713	      3.44348600	     -6.26136280	    -14.07184523	    -39.31443687	    -13.94675686	      5.08122026	     12.93678877	     11.18165213	      6.01048535	     -9.21532468
      3.79500000	    -11.42678664	     -3.49910119	      2.75869436	     -1.52316411	     -0.02389438	     -0.75342262	     31.27286615	      4.84326731	     -6.70565637	    -21.09448428	     -5.91484283	    -17.71916269	     -5.89374707	      4.17835713	     -6.67092353	    -13.73613664	    -41.05330260	    -15.28228366	      4.37451153	     12.85852836	     11.04795999	      6.29697439	     -9.11104130
      3.80000000	    -11.49416579	     -3.64866665	      2.67168346	     -1.51729464	     -0.02356462	     -0.75297884	     30.97606627	      5.10251296	     -6.59180301	    -21.14596636	     -5.45959404	    -17.67854012	     -6.00398699	      5.12972172	     -6.99211051	    -13.32796459	    -42.76473332	    -16.65764767	      3.50462887	     13.43051292	     11.10097112	      6.50684394	     -9.05286802
      3.80500000	    -11.40347672	     -3.87749319	      2.51774179	     -1.51138803	     -0.02305781	     -0.75247822	     30.45846790	      5.48159587	     -6.53078443	    -21.08483159	     -5.10961685	    -17.69373769	     -5.94368733	      5.89256487	     -7.43211869	    -13.10915959	    -44.47746099	    -17.68951197	      2.67056281	     13.41811411	     10.97711205	      6.83240550	     -8.85382551
      3.81000000	    -11.41941705	     -4.00910672	      2.44823181	     -1.50571308	     -0.02258533	     -0.75210128	     30.07290062	      5.68974503	     -6.55210924	    -21.04917972	     -4.72170871	    -17.56036749	     -5.79036272	      6.80882884	     -7.69436474	    -12.70598501	    -46.06830239	    -19.09967411	      1.47997742	     14.80449392	     10.93718108	      7.02489173	     -8.75628745
      3.81500000	    -11.37623029	     -4.17979284	      2.36683437	     -1.50000523	     -0.02204271	     -0.75171603	     29.58086046	      5.94750137	     -6.57510655	    -20.93696000	     -4.33702262	    -17.41455298	     -5.63807920	      7.68345711	     -8.00915437	    -12.40710478	    -47.72701587	    -20.01720700	      0.34727240	     14.76587389	     10.84174810	      7.26100503	     -8.62628028
      3.82000000	    -11.35892529	     -4.33825344	      2.28806430	     -1.49433510	     -0.02150883	     -0.75134251	     29.10537153	      6.17832191	     -6.64689123	    -20.79956871	     -3.94238070	    -17.17723475	     -5.38397993	      8.59814955	     -8.29897158	    -12.13114708	    -49.34517681	    -20.85747014	     -0.86249857	     14.79584917	     10.77002214	      7.47377180	     -8.50741638
